<?xml version="1.0" standalone="no"?>
<!DOCTYPE svg PUBLIC "-//W3C//DTD SVG 20010904//EN"
 "http://www.w3.org/TR/2001/REC-SVG-20010904/DTD/svg10.dtd">
<svg version="1.0" xmlns="http://www.w3.org/2000/svg"
 width="35.000000pt" height="37.000000pt" viewBox="0 0 35.000000 37.000000"
 preserveAspectRatio="xMidYMid meet">
<metadata>
Created by potrace 1.16, written by Peter Selinger 2001-2019
</metadata>
<g transform="translate(0.000000,37.000000) scale(0.100000,-0.100000)"
fill="#000000" stroke="none">
<path d="M227 321 c-3 -11 -21 -26 -40 -34 -19 -8 -38 -20 -41 -26 -4 -6 -25
-20 -46 -31 -28 -14 -38 -25 -33 -36 5 -13 16 -15 59 -9 47 6 54 4 64 -15 9
-17 8 -26 -5 -46 -18 -28 -14 -29 25 -9 43 22 78 74 75 112 -3 34 -35 113 -46
113 -4 0 -9 -9 -12 -19z"/>
</g>
</svg>
